<?xml version="1.0" standalone="no"?>
<!DOCTYPE svg PUBLIC "-//W3C//DTD SVG 20010904//EN"
 "http://www.w3.org/TR/2001/REC-SVG-20010904/DTD/svg10.dtd">
<svg version="1.0" xmlns="http://www.w3.org/2000/svg"
 width="384.000000pt" height="384.000000pt" viewBox="0 0 384.000000 384.000000"
 preserveAspectRatio="xMidYMid meet">
<metadata>
Created by potrace 1.14, written by Peter Selinger 2001-2017
</metadata>
<g transform="translate(0.000000,384.000000) scale(0.100000,-0.100000)"
fill="#000000" stroke="none">
<path d="M2280 3651 c-6 -12 -17 -17 -29 -14 -10 3 -22 0 -25 -6 -4 -6 -16
-11 -26 -11 -10 0 -27 -10 -37 -23 -10 -13 -26 -26 -36 -30 -10 -4 -16 -11
-13 -16 4 -5 1 -11 -6 -13 -8 -3 -11 -36 -11 -104 1 -143 6 -184 20 -184 7 0
13 -7 13 -15 0 -17 112 -75 145 -75 11 0 26 -4 34 -9 9 -6 30 -3 57 7 42 15
44 19 54 72 7 30 16 73 22 95 17 61 18 65 19 137 1 107 -30 186 -68 171 -7 -3
-13 0 -13 7 0 7 -8 9 -20 5 -14 -5 -20 -2 -20 9 0 23 -47 20 -60 -3z"/>
<path d="M1645 3425 c-22 -6 -39 -17 -37 -23 1 -7 -5 -12 -13 -12 -8 0 -15 -7
-15 -15 0 -8 -19 -34 -41 -57 -53 -54 -67 -87 -63 -149 3 -70 23 -106 72 -135
23 -14 42 -30 42 -36 0 -6 14 -9 35 -6 19 2 35 2 35 -2 0 -3 14 -6 30 -7 17
-1 30 2 30 7 0 6 5 9 11 8 18 -5 67 93 79 157 15 78 21 194 9 200 -4 3 -6 12
-3 19 8 20 -34 54 -62 51 -13 -1 -24 1 -24 5 0 11 -40 9 -85 -5z"/>
<path d="M2995 3345 c-63 -29 -89 -56 -80 -85 4 -12 1 -27 -5 -35 -7 -8 -9
-15 -4 -15 5 0 3 -4 -5 -9 -10 -6 -15 -30 -16 -75 -1 -36 -6 -71 -12 -78 -18
-22 -7 -46 46 -97 53 -52 59 -61 39 -61 -6 0 -19 -7 -29 -16 -17 -15 -17 -18
3 -55 11 -22 24 -42 29 -45 5 -3 7 -9 4 -14 -10 -16 15 -50 35 -50 23 0 74 75
72 105 0 11 6 27 15 37 9 10 13 18 9 18 -3 0 0 13 8 29 9 16 12 31 9 35 -4 3
-2 6 4 6 13 0 33 45 33 74 0 13 7 29 16 36 33 29 48 78 48 168 0 29 -6 58 -12
64 -7 7 -12 20 -12 29 0 10 -12 27 -26 38 -35 28 -104 26 -169 -4z"/>
<path d="M2299 3082 c-1 -4 -1 -11 0 -15 5 -30 -43 -59 -103 -62 -19 0 -41
-49 -30 -66 2 -4 -8 -17 -23 -29 -34 -26 -45 -60 -27 -84 7 -10 10 -24 8 -31
-3 -7 0 -16 5 -20 16 -9 3 -25 -14 -18 -9 3 -15 -1 -15 -11 0 -18 -29 -35 -66
-38 -29 -3 -81 -68 -70 -87 4 -5 3 -12 -1 -14 -10 -6 -8 -90 2 -135 10 -41 74
-112 106 -117 13 -2 44 -6 69 -10 25 -4 50 -7 56 -8 22 -1 83 44 90 66 3 12
18 34 32 49 29 31 32 46 34 135 0 57 -2 64 -33 95 -19 18 -38 34 -44 34 -5 1
-16 2 -23 3 -7 0 -10 6 -7 11 3 6 1 10 -4 10 -6 0 -11 5 -11 10 0 6 7 10 17
10 18 0 73 57 73 75 0 7 10 25 22 40 21 27 23 39 17 156 -2 54 -3 56 -31 57
-15 0 -29 -2 -29 -6z"/>
<path d="M1615 2912 c-2 -3 -15 -6 -27 -7 -13 -1 -29 -3 -35 -4 -7 0 -13 -8
-13 -16 0 -8 -12 -22 -27 -32 -38 -24 -53 -39 -53 -54 0 -18 58 -70 65 -59 4
6 11 8 16 5 5 -4 9 -1 9 4 0 7 21 9 58 5 54 -6 60 -5 79 19 21 27 24 90 5 123
-10 17 -64 28 -77 16z"/>
<path d="M3390 2622 c-13 -2 -38 -17 -55 -33 -26 -26 -30 -37 -30 -88 0 -47 5
-64 26 -92 14 -19 25 -42 23 -52 -1 -10 6 -23 17 -30 10 -6 19 -17 19 -24 0
-7 4 -13 10 -13 14 0 33 -79 31 -130 -2 -40 -8 -50 -57 -98 -30 -28 -64 -54
-77 -56 -12 -3 -24 -5 -27 -6 -3 -2 -9 -2 -14 -1 -38 7 -76 -72 -61 -126 5
-16 8 -37 9 -48 1 -11 7 -19 14 -18 6 2 12 -2 12 -7 0 -15 37 -12 54 5 8 8 17
15 21 15 8 0 14 6 115 104 44 44 92 101 107 128 14 26 29 48 33 48 4 0 7 6 8
13 0 6 3 23 7 37 9 32 9 79 1 108 -3 12 -8 32 -11 44 -2 12 -10 25 -16 29 -6
3 -12 19 -14 35 -1 16 -4 34 -6 39 -2 6 2 26 8 45 7 19 11 44 10 55 -5 41 -55
104 -84 105 -7 0 -13 4 -13 8 0 8 -19 9 -60 4z"/>
<path d="M1470 2612 c0 -5 -14 -7 -31 -4 -22 3 -36 -1 -50 -17 -11 -11 -16
-21 -12 -21 4 -1 -3 -7 -16 -14 -24 -13 -29 -23 -36 -81 -11 -90 -12 -116 -4
-121 5 -3 7 -10 3 -15 -8 -14 17 -122 32 -135 8 -6 11 -14 7 -17 -3 -4 11 -7
33 -8 65 -2 119 3 124 9 3 4 18 14 35 22 32 17 78 77 69 91 -3 5 -1 9 4 9 6 0
13 15 16 33 3 17 8 43 11 55 2 13 13 38 24 54 l19 31 -40 51 c-29 37 -53 56
-86 68 -50 18 -102 23 -102 10z"/>
<path d="M2765 2500 c-3 -5 -23 -17 -43 -27 -46 -22 -81 -61 -82 -90 0 -12 -4
-24 -9 -27 -27 -17 22 -84 66 -90 9 -2 23 -12 32 -23 24 -31 68 -38 108 -16
18 9 33 21 33 25 0 3 7 13 15 21 41 42 73 157 43 157 -5 0 -6 5 -2 12 4 6 3 8
-3 5 -6 -4 -16 0 -23 8 -7 8 -16 13 -20 10 -4 -3 -10 1 -13 8 -2 7 -20 14 -38
15 -19 1 -35 7 -37 12 -5 13 -19 13 -27 0z"/>
<path d="M2020 2190 c-11 -11 -23 -20 -27 -20 -5 -1 -24 -15 -43 -33 -19 -17
-46 -32 -59 -34 -13 -1 -27 -7 -31 -13 -8 -13 -16 -13 -43 2 -27 14 -54 18
-132 22 -38 2 -91 7 -116 11 -37 6 -49 4 -64 -11 -10 -11 -21 -18 -24 -18 -13
3 -40 -23 -33 -31 4 -5 2 -5 -5 -2 -12 8 -105 -81 -98 -94 3 -4 0 -9 -6 -11
-10 -3 -20 -84 -19 -153 0 -11 0 -32 0 -47 0 -16 5 -28 10 -28 6 0 9 -4 6 -9
-3 -5 3 -20 14 -34 11 -14 20 -30 20 -36 0 -6 5 -11 11 -11 5 0 8 -4 5 -9 -3
-5 5 -16 19 -25 14 -9 24 -20 23 -24 -1 -4 3 -17 10 -30 12 -20 10 -23 -14
-33 -15 -5 -49 -32 -75 -58 -26 -27 -50 -47 -53 -44 -7 7 -18 -36 -11 -47 3
-5 2 -10 -4 -10 -14 0 -66 -81 -66 -102 0 -9 4 -20 8 -24 13 -13 -15 -34 -44
-34 -16 0 -36 -8 -45 -17 -47 -53 -64 -81 -64 -106 0 -25 -2 -27 -20 -17 -14
8 -26 8 -40 0 -20 -11 -22 -14 -24 -51 -1 -23 -46 -65 -55 -52 -3 4 -15 10
-26 11 -10 2 -30 12 -43 23 -14 10 -27 19 -31 19 -17 -1 -34 -21 -36 -44 -3
-21 2 -27 22 -32 21 -6 24 -11 21 -38 -2 -21 3 -39 14 -51 10 -10 18 -24 18
-32 0 -7 4 -13 9 -13 5 0 12 -11 15 -25 4 -14 11 -25 16 -25 21 0 25 -3 35
-26 6 -12 26 -40 45 -61 19 -21 43 -50 53 -65 10 -17 32 -31 57 -38 22 -6 40
-14 40 -19 0 -4 10 -13 23 -20 12 -6 36 -20 52 -30 17 -10 35 -16 40 -13 6 3
7 2 3 -3 -4 -4 0 -14 10 -21 9 -7 17 -18 17 -25 0 -7 9 -13 20 -15 19 -3 46
-14 96 -40 16 -8 39 -11 58 -8 17 4 38 3 48 -2 39 -17 146 -21 151 -6 2 7 8
10 13 6 5 -3 9 -1 9 4 0 14 43 23 51 10 8 -12 79 27 79 43 0 16 30 9 37 -8 10
-28 17 -29 100 -22 94 8 128 -6 191 -76 26 -29 55 -50 75 -55 17 -4 41 -11 51
-16 12 -4 17 -4 13 2 -4 6 6 9 24 6 16 -2 39 2 53 11 13 9 32 14 42 11 21 -5
94 49 94 71 0 7 3 15 8 17 11 5 73 87 76 101 2 6 6 20 10 29 8 17 14 44 15 66
1 7 5 11 9 8 11 -6 53 40 45 48 -4 3 -1 6 6 6 12 0 48 31 44 37 -2 2 0 4 4 6
4 1 24 17 43 36 32 32 40 50 44 109 0 12 4 22 9 22 4 0 7 9 7 20 0 11 4 20 9
20 5 0 11 8 15 17 6 20 25 51 43 71 15 16 44 112 38 123 -3 4 -1 10 5 14 13 8
13 45 0 45 -5 0 -10 7 -10 15 0 8 -4 15 -8 15 -4 0 -8 8 -8 18 0 14 7 18 28
17 19 -1 35 7 54 28 34 38 44 75 43 166 0 42 1 85 2 96 3 59 -1 79 -25 113
-14 21 -26 43 -26 50 0 7 -4 12 -10 12 -5 0 -10 5 -10 11 0 6 -7 17 -15 25 -8
9 -15 13 -15 9 0 -3 -6 0 -14 7 -8 7 -12 16 -10 19 4 7 -33 58 -56 76 -8 7
-11 13 -6 13 18 0 -28 40 -46 40 -23 0 -54 16 -82 41 -11 11 -24 19 -30 19 -5
0 -7 3 -3 6 17 17 -39 81 -65 76 -4 -1 -16 10 -25 26 -10 15 -25 33 -33 40
-19 16 -78 12 -108 -7 -21 -13 -27 -13 -58 4 -19 10 -34 22 -34 27 0 4 -7 8
-15 8 -14 0 -80 32 -125 59 -73 46 -156 55 -190 21z"/>
<path d="M469 1837 c-8 -7 -19 -21 -23 -32 -7 -19 -8 -19 -25 4 -16 21 -19 21
-33 8 -13 -14 -19 -14 -43 -1 -33 17 -38 18 -29 2 4 -7 3 -8 -4 -4 -7 4 -24
-6 -40 -21 -16 -15 -37 -33 -48 -39 -14 -8 -19 -22 -18 -58 0 -25 -4 -46 -8
-46 -17 0 -7 -18 13 -23 17 -5 20 -11 16 -29 -4 -16 1 -30 18 -47 14 -13 25
-31 25 -41 0 -10 7 -25 15 -34 8 -8 15 -19 15 -23 0 -18 90 -133 90 -116 0 4
4 3 8 -3 16 -24 94 -65 110 -58 10 4 25 6 35 5 9 -1 20 4 22 12 3 7 15 13 26
12 12 -1 36 14 56 34 34 34 35 38 37 119 2 55 -1 88 -9 96 -7 6 -16 22 -19 34
-4 12 -12 22 -17 22 -5 0 -8 3 -7 8 3 12 -38 72 -45 65 -4 -3 -7 -1 -7 5 0 7
-7 12 -15 12 -19 0 -41 40 -23 41 7 1 18 2 23 4 6 1 13 3 18 3 10 3 -19 58
-44 83 -22 22 -47 24 -70 6z"/>
</g>
</svg>
